<?xml version="1.0" encoding="UTF-8"?>
<svg id="Layer_1" data-name="Layer 1" xmlns="http://www.w3.org/2000/svg" viewBox="0 0 176.96 71.89">
  <defs>
    <style>
      .cls-1 {
        font-family: ArialMT, Arial;
        font-size: 29.75px;
      }

      .cls-2 {
        stroke-width: 0px;
      }

      .cls-3 {
        letter-spacing: -.02em;
      }
    </style>
  </defs>
  <g>
    <path class="cls-2" d="m136.94,16.28c-2.15,6.86-4.33,13.71-6.44,20.59-2.13,6.97-2.1,6.99-9.51,6.93-1.62-.01-3.26-.17-4.87-.02-4.57.42-7.61-1.83-9.92-5.43-1.07-1.68-2.16-3.38-3.01-5.18-1.31-2.78-3.75-2.15-5.86-1.96-2.55.22-1.4,2.45-1.63,3.87-.13.85-.02,1.75-.02,2.62.02,6.26-1.42,7.34-7.7,6.13-1.58-.3-1.67-1.21-1.67-2.39,0-5.62.05-11.25,0-16.87-.02-2.03.96-2.5,2.78-2.47,5,.07,10,.06,15-.05,4.56-.1,7.47-2.88,7.3-6.75-.16-3.77-2.97-6.11-7.51-6.14-6-.04-12-.13-18,.03-2.57.07-4.51-.43-5.95-2.76-1.49-2.42-4.09-3.82-7-6.33,5.51,0,10.06,0,14.62,0,5.62,0,11.25-.03,16.87.01,7.41.06,13.41,4.18,15.6,10.66,2.25,6.66.29,12.83-5.89,17.47-1.66,1.25-1.95,2.03-.9,3.88,1.47,2.58,3.55,3.22,6.26,3.1,2.82-.13,2.37-2.53,2.89-4.11,3.04-9.25,6.06-18.52,8.88-27.84.76-2.51,1.95-3.53,4.51-3.19,1.1.15,2.26.14,3.37,0,2.41-.31,3.5.69,4.19,3.04,2.83,9.58,5.96,19.07,8.77,28.66.73,2.49,1.89,3.33,4.45,3.32,13.1-.02,10.89.09,11.07-10.79.07-4.12-.06-8.25.05-12.37.06-2.2-.62-3.26-3-3.03-5.02.48-2.91-3.38-3.31-5.65-.51-2.87,1.19-3.27,3.54-3.17,3.12.14,6.25.1,9.37,0,1.84-.06,2.72.43,2.7,2.49-.08,10.25.06,20.5-.1,30.75-.09,5.41-5.03,9.94-11.39,10.33-5.73.35-11.49.08-17.24.21-2.04.04-2.41-1.2-2.87-2.73-2.49-8.24-5.05-16.46-7.59-24.69-.28-.05-.56-.1-.85-.14Z"/>
    <path class="cls-2" d="m55.77,10.73c-5.59,5.54-4.4,11.65-3.85,17.37.52,5.37,5.75,8.65,11.63,8.2,5.32-.41,9.33-4.39,9.7-9.65,0-.12,0-.25,0-.37.86-12.85-2.11-17.94-16.37-17.46-13.47.46-26.97.1-40.46.1-.12,0-.25,0-.37,0-4.53.05-6.82,1.47-6.52,4.31.41,3.84,3.33,4.16,6.39,4.13,2.75-.03,5.5.01,8.24,0,2.54-.02,4.98.5,7.25,1.59,5.14,2.47,8.19,8.07,7.45,13.52-.71,5.29-5.64,10.46-11.2,11.15-7.08.89-14.22.25-21.34.35-1.41.02-2.04-.65-1.96-2.06.05-.87.11-1.77-.02-2.62-.5-3.25.68-4.39,4.07-4.19,5.1.3,10.24.11,15.36.05,3.49-.04,5.86-1.9,5.89-4.46.02-2.63-2.24-4.43-5.79-4.54-3.87-.12-7.76.09-11.59-.32C4.87,25.02-.27,19.35.01,12.71.29,6.04,5.86.3,13.08.21,30.19,0,47.3-.05,64.41.27c9.24.18,16.67,7.48,18.02,16.59.53,3.61.59,7.22.11,10.82-1.47,10.95-10.43,18.22-21.49,17.49-10.82-.71-18.79-9.06-18.85-19.92-.02-3.61-.29-7.25.6-10.82.64-2.58,1.83-4.17,4.92-3.77,2.3.3,4.67.06,8.04.06Z"/>
  </g>
  <text class="cls-1" transform="translate(36.08 71.52)"><tspan x="0" y="0">GROU</tspan><tspan class="cls-3" x="89.26" y="0">P</tspan></text>
</svg>